<?xml version="1.0" encoding="utf-8"?>
<!-- Generator: Adobe Illustrator 23.0.3, SVG Export Plug-In . SVG Version: 6.00 Build 0)  -->
<svg version="1.1" id="Ebene_1" xmlns="http://www.w3.org/2000/svg" xmlns:xlink="http://www.w3.org/1999/xlink" x="0px" y="0px"
	 width="108px" height="33px" viewBox="0 0 108 33" style="enable-background:new 0 0 108 33;" xml:space="preserve">
<style type="text/css">
	.st0{fill-rule:evenodd;clip-rule:evenodd;fill:#005386;}
</style>
<g id="Symbols">
	<g id="DESKTOP_menu_notif_final" transform="translate(-71.000000, -13.000000)">
		<g id="MENU">
			<g id="logo" transform="translate(71.000000, 13.000000)">
				<path id="Fill-1" class="st0" d="M15.2,0.4c2.8-0.1,6.1,0.5,6.7,2.4c1,3.2-4.1,7.9-8.5,10.2c-1.1,0.6-1.7,0.7-2,0.7
					c-0.3,0-0.3-0.3-0.2-0.5c0.2-0.3,0.9-1,1.8-1.8c5-3.9,6.6-6.8,5.7-7.9c-0.6-0.7-3.1-1.3-5.8-1.3c-0.7,0-2.6,0.2-2.8-0.5
					C10,1.2,12.5,0.5,15.2,0.4"/>
				<path id="Fill-3" class="st0" d="M9.4,15.2c2.4-0.1,5.3,0.3,6.9,1.5c0.8,0.6,1.4,1.8,1,3.1c-0.9,3.7-4.4,8.2-12.2,11.6
					c-2.5,1.1-4.4,1.5-4.8,1.2c-0.4-0.3,0.8-2.8,1.2-3.6c1.2-2.6,2.8-5.2,4.3-7.5c0.6-0.9,1.4-2.4,2.2-2.2C8.7,19.4,7.9,21,7.3,22
					c-0.9,1.7-3.4,6.4-2.6,6.7c1.8,0.6,10.3-5.9,9.1-9.5c-0.6-1.7-4.3-1.8-6.6-1.8c-1.1,0-3.4,0.3-3.5-0.6
					C3.6,16.1,7.2,15.3,9.4,15.2"/>
				<path id="Fill-5" class="st0" d="M27.8,11.2c1.4,0.3,2.6,0.5,2.9,1.1c0.3,0.7-1.3,0.7-2,0.7c-3.8,0.1-6,0.1-6.2,1.4
					c-0.1,1.6,1.6,3.3,3.3,5.6c1.6,2.1,3.4,4.2,2.9,6.2c-0.6,2.4-3.6,3-6.5,3c-2.7,0-5.3-0.4-6.4-0.6c-1.4-0.3-1.1-0.9-0.8-1.1
					c0.4-0.2,2.7-0.2,4.3-0.3C20.6,27,24.4,27,25,26c0.7-1.2-1.1-3.2-2.7-5.4c-2-2.7-4.3-5.4-3.1-7.5C20.8,10.6,25.3,10.7,27.8,11.2
					"/>
				<path id="Fill-6" class="st0" d="M86.6,18.5c3,0,4.2-1,4.7-3.4l0.7-3.7c0-0.2-0.1-0.3-0.3-0.3h-1.5l-0.4,2.1l-0.2,1.1l-0.2,1
					c-0.3,1.4-1.1,2-2.6,2c-1.6,0-2.1-0.6-1.8-2c0,0,0.1-0.3,0.1-0.4l0.3-1.7l0.4-2.1h-1.5c-0.2,0-0.4,0.1-0.4,0.3l-0.7,3.7
					C82.7,17.7,84,18.5,86.6,18.5L86.6,18.5z M35.1,22.6c-0.2,1,0.6,1.5,2.2,2.5c1.8,1.1,2.2,1.2,2,1.8c-0.1,0.5-0.6,0.5-1.4,0.5
					h-3.2c-0.4,0-0.6,0.1-0.6,0.5L34,28.5h4c1.8,0,3-0.1,3.4-1.2c0.2-0.5,0.2-1.1-0.3-1.7c-0.3-0.3-0.6-0.5-1.1-0.8
					c-2.3-1.3-2.9-1.4-2.8-2.1c0.1-0.4,0.3-0.4,1.2-0.4h2.7c0.4,0,0.6-0.1,0.6-0.5l0.1-0.7h-3.4C36.6,21.2,35.4,21.2,35.1,22.6
					L35.1,22.6z M52.9,22.6c-0.2,1,0.6,1.5,2.2,2.5c1.8,1.1,2.2,1.2,2,1.8c-0.1,0.5-0.6,0.5-1.4,0.5h-3.2c-0.4,0-0.6,0.1-0.6,0.5
					l-0.1,0.7h4c1.8,0,3-0.1,3.4-1.2c0.2-0.5,0.2-1.1-0.3-1.7c-0.3-0.3-0.6-0.5-1.1-0.8c-2.3-1.3-2.9-1.4-2.8-2.1
					c0.1-0.4,0.3-0.4,1.2-0.4h2.7c0.4,0,0.6-0.1,0.6-0.5l0.1-0.7h-3.4C54.3,21.2,53.2,21.2,52.9,22.6L52.9,22.6z M97.8,22.6
					c-0.2,1,0.6,1.5,2.2,2.5c1.8,1.1,2.2,1.2,2,1.8c-0.1,0.5-0.6,0.5-1.4,0.5h-3.2c-0.4,0-0.6,0.1-0.6,0.5l-0.1,0.7h4
					c1.8,0,3-0.1,3.4-1.2c0.2-0.5,0.2-1.1-0.3-1.7c-0.3-0.3-0.6-0.5-1.1-0.8c-2.3-1.3-2.9-1.4-2.8-2.1c0.1-0.4,0.3-0.4,1.2-0.4h2.7
					c0.4,0,0.6-0.1,0.6-0.5l0.1-0.7h-3.4C99.2,21.2,98.1,21.2,97.8,22.6L97.8,22.6z M71.3,17.1c0.2-0.5,0.2-1.1-0.3-1.7
					c-0.3-0.3-0.6-0.5-1.1-0.8c-2.3-1.3-2.9-1.4-2.8-2.1c0.1-0.4,0.3-0.4,1.2-0.4H71c0.4,0,0.6-0.1,0.6-0.5l0.1-0.7h-3.4
					c-1.9,0-3.1,0-3.4,1.4c-0.2,1,0.6,1.5,2.2,2.5c1.8,1.1,2.2,1.2,2,1.8c-0.1,0.5-0.6,0.5-1.4,0.5h-3.2c-0.4,0-0.6,0.1-0.6,0.5
					l-0.1,0.7h4C69.7,18.4,70.8,18.2,71.3,17.1L71.3,17.1z M62.7,17.1c0.2-0.5,0.2-1.1-0.3-1.7c-0.3-0.3-0.6-0.5-1.1-0.8
					c-2.3-1.3-2.9-1.4-2.8-2.1c0.1-0.4,0.3-0.4,1.2-0.4h2.7c0.4,0,0.6-0.1,0.6-0.5l0.1-0.7h-3.4c-1.9,0-3.1,0-3.4,1.4
					c-0.2,1,0.6,1.5,2.2,2.5c1.8,1.1,2.2,1.2,2,1.8c-0.1,0.5-0.6,0.5-1.4,0.5H56c-0.4,0-0.6,0.1-0.6,0.5l-0.1,0.7h4
					C61.1,18.4,62.3,18.2,62.7,17.1L62.7,17.1z M100.1,11c-0.4,0-0.6,0.1-0.6,0.4l-0.1,0.7h2.9l-1.2,6.2h1.3c0.4,0,0.6-0.1,0.6-0.5
					l1.1-5.7h2.4c0.3,0,0.5-0.2,0.5-0.4l0.1-0.7H100.1L100.1,11z M37.3,13.1c-0.2,0-0.3,0.1-0.3,0.2l-1,5h4.3c2.4,0,4.1-0.9,4.6-3.7
					c0.4-2.1-0.5-3.6-3-3.6h-5.2c0,0,0,0.1,0,0.1c-0.1,0.5-0.1,1,0.8,1h3.8c1.8,0,2.1,0.9,1.7,2.5c-0.4,1.6-1,2.4-2.4,2.5H38
					l0.8-4.2H37.3L37.3,13.1z M99.1,17.7c0.1-0.3-0.1-0.4-0.3-0.4h-3.9l1.2-5.9c0-0.1-0.1-0.2-0.2-0.2h-1.6l-1.4,7.3h6.2L99.1,17.7
					L99.1,17.7z M87.4,21.2h-1.7L82.5,24l-2.1-2.9h-1.7c-0.3,0-0.4,0.2-0.5,0.5l-1.3,6.8h1.4c0.3,0,0.5-0.1,0.5-0.4l1-5.1l1.6,2.3
					c0,0.1,0.2,0.2,0.4,0.2h0.7c0.2,0,0.4-0.1,0.5-0.2l2.5-2.3l-1,5.1c-0.1,0.3,0.1,0.4,0.4,0.4h1.4l1.3-6.8
					C87.7,21.4,87.6,21.2,87.4,21.2L87.4,21.2z M69.8,21.7l-1.3,6.8h6.8l0.1-0.7c0.1-0.3,0-0.4-0.4-0.4h-4.5l0.4-2h4
					c0.1,0,0.2-0.1,0.2-0.2l0.2-0.8c0-0.1,0-0.2-0.1-0.2h-4l0.4-2h4.3c0.2,0,0.4,0,0.5-0.3l0.2-0.9h-6.1
					C70.1,21.2,69.9,21.3,69.8,21.7L69.8,21.7z M89.9,21.7l-1.3,6.8h6.8l0.1-0.7c0.1-0.3,0-0.4-0.4-0.4h-4.5l0.4-2h4
					c0.1,0,0.2-0.1,0.2-0.2l0.2-0.8c0-0.1,0-0.2-0.1-0.2h-4l0.4-2h4.3c0.2,0,0.4,0,0.5-0.3l0.2-0.9h-6.1
					C90.2,21.2,90,21.3,89.9,21.7L89.9,21.7z M49.3,21.4l-0.6,3.3c-1.1,0.3-4.1,1-3.6-1.4l0.4-2.2H44c-0.2,0-0.3,0.1-0.3,0.2l-0.4,2
					c-0.7,3.8,2.9,3.3,5.2,2.6L48,28.5h1.3c0.4,0,0.6-0.1,0.6-0.5l1.3-6.8h-1.6C49.5,21.2,49.4,21.3,49.3,21.4L49.3,21.4z
					 M68.7,21.9l0.1-0.7h-7c-0.4,0-0.6,0.1-0.6,0.4L61,22.3h2.9l-1.2,6.2H64c0.4,0,0.6-0.1,0.6-0.5l1.1-5.7h2.4
					C68.5,22.3,68.6,22.2,68.7,21.9L68.7,21.9z M48.5,14.1c0.3-1.4,1.1-1.9,2.6-1.9c1.6,0,2,0.6,1.7,1.9c0,0-0.1,0.3-0.1,0.4
					c0,0.2-0.1,0.5-0.5,0.5h-3.9L48.5,14.1L48.5,14.1z M46.3,18.4h1.4l0.4-2.1h4.3L52,18.4h1.4c0.2,0,0.4-0.1,0.4-0.3l0.7-3.7
					c0.5-2.8-1.1-3.4-3.2-3.4c-2.6,0-4,0.6-4.6,3.4L46,18C46,18.3,46.1,18.4,46.3,18.4L46.3,18.4z M75.4,14.1
					c0.3-1.4,1.1-1.9,2.6-1.9c1.6,0,2,0.6,1.7,1.9c0,0-0.1,0.3-0.1,0.4c0,0.2-0.1,0.5-0.5,0.5h-3.9L75.4,14.1L75.4,14.1z M73.2,18.4
					h1.4l0.4-2.1h4.3l-0.4,2.1h1.4c0.2,0,0.4-0.1,0.4-0.3l0.7-3.7c0.5-2.8-1.1-3.4-3.2-3.4c-2.6,0-4,0.6-4.6,3.4L72.9,18
					C72.9,18.3,73,18.4,73.2,18.4L73.2,18.4z"/>
			</g>
		</g>
	</g>
</g>
</svg>
