<svg width="146" height="88" xmlns="http://www.w3.org/2000/svg" xmlns:xlink="http://www.w3.org/1999/xlink" xml:space="preserve" overflow="hidden"><defs><clipPath id="clip0"><rect x="959" y="543" width="146" height="88"/></clipPath></defs><g clip-path="url(#clip0)" transform="translate(-959 -543)"><path d="M141.968 30.6699C139.838 28.7275 136.875 26.5443 133.024 24.8301 134.962 23.2332 136.591 21.148 137.821 19.2867 138.414 18.387 138.7 17.3743 138.7 16.3722 138.7 14.6665 137.875 12.9928 136.348 11.9737 134.318 10.6241 131.619 10.8267 129.837 12.4875 126.794 15.3296 125.212 20.1268 124.617 22.31 123.786 22.1671 122.927 22.0541 122.042 21.9689L121.775 22.2098 121.775 22.2098C121.775 22.2098 112.492 7.90572 112.492 7.90572 109.277 2.95505 103.838 0 97.9388 0L53.7772 0C51.4192 0 49.1208 0.965828 47.4706 2.65017L37.1066 13.2295 10.0122 13.2295C10.0122 13.2295 10.0122 13.2295 10.0122 13.2295 9.43015 11.0548 7.44733 9.44934 5.09139 9.44934 2.28345 9.44934-0.00213207 11.7328-0.00213207 14.5429-0.00213207 17.3529 2.28132 19.6364 5.09139 19.6364 7.44733 19.6364 9.43015 18.0309 10.0122 15.8562L38.211 15.8562 49.3468 4.48801C50.5066 3.30471 52.1228 2.62458 53.7794 2.62458L97.941 2.62458C102.947 2.62458 107.563 5.1319 110.288 9.33208L119.807 24.0029 119.807 24.0029C119.807 24.0029 100.216 41.8547 100.216 41.8547 99.5784 42.4368 98.7448 42.7587 97.8834 42.7587L68.9853 42.7587 68.9853 56.2973 62.8002 56.2973 50.5152 43.3365 22.6895 43.3365C22.1075 41.1618 20.1246 39.5563 17.7687 39.5563 14.9607 39.5563 12.6752 41.8398 12.6752 44.6498 12.6752 47.4599 14.9586 49.7434 17.7687 49.7434 20.1246 49.7434 22.1075 48.1379 22.6895 45.9632L49.3809 45.9632 61.6659 58.9241 68.981 58.9241 68.981 59.5019 118.933 59.5019C118.933 59.5019 113.398 65.0367 112.183 72.4627L68.981 72.3284 68.981 76.552 65.8874 76.552 52.9265 63.3204 24.2182 63.3204C24.2182 63.3204 24.2182 63.3204 24.2182 63.3204 23.6361 61.1457 21.6533 59.5402 19.2974 59.5402 16.4894 59.5402 14.2039 61.8237 14.2039 64.6338 14.2039 67.4438 16.4873 69.7273 19.2974 69.7273 21.6533 69.7273 23.6361 68.1218 24.2182 65.9471L51.8221 65.9471 62.2117 76.552 31.5973 76.552C31.0152 74.3773 29.0324 72.7719 26.6765 72.7719 23.8685 72.7719 21.583 75.0553 21.583 77.8654 21.583 80.6755 23.8664 82.9589 26.6765 82.9589 29.0324 82.9589 31.0152 81.3535 31.5973 79.1787L68.9789 79.1787 68.9789 79.8909 112.72 79.8909 113.268 81.4707C114.475 84.9694 117.769 87.3169 121.471 87.3169L133.363 87.3169C137.346 87.3169 141.071 85.3554 143.329 82.0741L143.412 81.9568C143.915 81.2213 144.203 80.3663 144.241 79.4772L145.989 40.3708C146.151 36.7036 144.685 33.1473 141.968 30.672ZM5.09352 17.0118C3.73326 17.0118 2.62671 15.9053 2.62671 14.545 2.62671 13.1847 3.73326 12.0782 5.09352 12.0782 6.45378 12.0782 7.56033 13.1847 7.56033 14.545 7.56033 15.9053 6.45378 17.0118 5.09352 17.0118ZM17.7687 47.1188C16.4084 47.1188 15.3019 46.0122 15.3019 44.652 15.3019 43.2917 16.4084 42.1852 17.7687 42.1852 19.1289 42.1852 20.2355 43.2917 20.2355 44.652 20.2355 46.0122 19.1289 47.1188 17.7687 47.1188ZM19.2995 67.1006C17.9392 67.1006 16.8327 65.994 16.8327 64.6338 16.8327 63.2735 17.9392 62.1669 19.2995 62.1669 20.6598 62.1669 21.7663 63.2735 21.7663 64.6338 21.7663 65.994 20.6598 67.1006 19.2995 67.1006ZM26.6807 80.3322C25.3205 80.3322 24.2139 79.2256 24.2139 77.8654 24.2139 76.5051 25.3205 75.3986 26.6807 75.3986 28.041 75.3986 29.1476 76.5051 29.1476 77.8654 29.1476 79.2256 28.041 80.3322 26.6807 80.3322ZM134.097 38.2707C132.86 40.0787 130.939 42.1255 128.052 43.5518 126.549 44.2938 124.886 44.6541 123.21 44.6541L111.612 44.6541C110.514 44.6541 109.62 43.7608 109.62 42.6628 109.62 40.1469 110.505 37.7078 112.132 35.7847 115.665 31.6101 122.272 24.9794 127.711 26.2927 129.945 26.8321 131.589 27.7148 132.792 28.6956 135.664 31.0387 136.186 35.209 134.097 38.2707Z" fill="#A5C249" transform="matrix(1 0 0 1.00702 959 543.037)"/><path d="M94.7535 38.9785C96.6681 38.9785 98.5081 38.2366 99.8854 36.9062L113.264 23.9922 68.981 23.9922 68.981 24.0306 48.2509 24.0306C47.622 21.6768 45.3513 19.9924 42.7459 20.2824 40.4177 20.5425 38.5329 22.4273 38.2707 24.7555 37.9253 27.8257 40.3281 30.4353 43.3301 30.4353 45.686 30.4353 47.6689 28.8299 48.2509 26.6552L68.981 26.6552 68.981 38.9785 94.7535 38.9785ZM43.3301 27.8107C41.9698 27.8107 40.8633 26.7042 40.8633 25.3439 40.8633 23.9837 41.9698 22.8771 43.3301 22.8771 44.6904 22.8771 45.7969 23.9837 45.7969 25.3439 45.7969 26.7042 44.6904 27.8107 43.3301 27.8107Z" fill="#A5C249" transform="matrix(1 0 0 1.00702 959 543.037)"/></g></svg>